<mxfile host="Electron" agent="Mozilla/5.0 (Windows NT 10.0; Win64; x64) AppleWebKit/537.36 (KHTML, like Gecko) draw.io/26.0.7 Chrome/128.0.6613.186 Electron/32.2.5 Safari/537.36" version="26.0.7">
  <diagram name="페이지-1" id="5CI5TGa5hVSK78Cl7whd">
    <mxGraphModel dx="946" dy="639" grid="1" gridSize="10" guides="1" tooltips="1" connect="1" arrows="1" fold="1" page="1" pageScale="1" pageWidth="583" pageHeight="827" background="#ffffff" math="0" shadow="0">
      <root>
        <mxCell id="0" />
        <mxCell id="1" parent="0" />
        <mxCell id="OnXjWkOV2yzolsW06Ajc-8" value="&lt;font style=&quot;font-size: 15px;&quot;&gt;FoodMate 성능관리 프로세스&lt;/font&gt;" style="swimlane;whiteSpace=wrap;html=1;swimlaneFillColor=light-dark(#9e9a9a, #989090);fillColor=light-dark(#cdc6c6, #ededed);startSize=40;fontColor=light-dark(#080808, #121212);fontStyle=1" parent="1" vertex="1">
          <mxGeometry x="120" y="30" width="330" height="490" as="geometry" />
        </mxCell>
        <mxCell id="OnXjWkOV2yzolsW06Ajc-9" value="성능저하 감지/&lt;div&gt;업무변화&lt;/div&gt;" style="rounded=0;whiteSpace=wrap;html=1;fillColor=light-dark(#e1dfdf, #635f5f);fontColor=light-dark(#080808, #121212);fontStyle=1" parent="OnXjWkOV2yzolsW06Ajc-8" vertex="1">
          <mxGeometry x="20" y="60" width="120" height="40" as="geometry" />
        </mxCell>
        <mxCell id="OnXjWkOV2yzolsW06Ajc-10" value="수집된 데이터 분석" style="rounded=0;whiteSpace=wrap;html=1;fillColor=light-dark(#e1dfdf, #635f5f);fontColor=light-dark(#080808, #121212);fontStyle=1" parent="OnXjWkOV2yzolsW06Ajc-8" vertex="1">
          <mxGeometry x="20" y="135" width="120" height="30" as="geometry" />
        </mxCell>
        <mxCell id="OnXjWkOV2yzolsW06Ajc-14" value="문제영역 식별" style="rounded=0;whiteSpace=wrap;html=1;fillColor=light-dark(#e1dfdf, #635f5f);fontColor=light-dark(#080808, #121212);fontStyle=1" parent="OnXjWkOV2yzolsW06Ajc-8" vertex="1">
          <mxGeometry x="20" y="202" width="120" height="30" as="geometry" />
        </mxCell>
        <mxCell id="OnXjWkOV2yzolsW06Ajc-15" value="원인분석" style="rhombus;whiteSpace=wrap;html=1;fillColor=light-dark(#e1dfdf, #635f5f);fontColor=light-dark(#080808, #121212);fontStyle=1" parent="OnXjWkOV2yzolsW06Ajc-8" vertex="1">
          <mxGeometry x="15" y="270" width="130" height="50" as="geometry" />
        </mxCell>
        <mxCell id="OnXjWkOV2yzolsW06Ajc-16" value="조정항목 선정" style="rounded=0;whiteSpace=wrap;html=1;fillColor=light-dark(#e1dfdf, #635f5f);fontColor=light-dark(#080808, #121212);fontStyle=1" parent="OnXjWkOV2yzolsW06Ajc-8" vertex="1">
          <mxGeometry x="25" y="376" width="120" height="30" as="geometry" />
        </mxCell>
        <mxCell id="OnXjWkOV2yzolsW06Ajc-17" value="&lt;span&gt;조정 가능&lt;/span&gt;" style="text;html=1;align=center;verticalAlign=middle;whiteSpace=wrap;rounded=0;fontColor=light-dark(#080808, #121212);fontStyle=1" parent="OnXjWkOV2yzolsW06Ajc-8" vertex="1">
          <mxGeometry x="15" y="320" width="60" height="30" as="geometry" />
        </mxCell>
        <mxCell id="OnXjWkOV2yzolsW06Ajc-18" value="자원 증설&lt;span style=&quot;font-family: monospace; font-size: 0px; text-align: start; text-wrap: nowrap;&quot;&gt;%3CmxGraphModel%3E%3Croot%3E%3CmxCell%20id%3D%220%22%2F%3E%3CmxCell%20id%3D%221%22%20parent%3D%220%22%2F%3E%3CmxCell%20id%3D%222%22%20value%3D%22%EC%88%98%EC%A7%91%EB%90%9C%20%EB%8D%B0%EC%9D%B4%ED%84%B0%20%EB%B6%84%EC%84%9D%22%20style%3D%22rounded%3D0%3BwhiteSpace%3Dwrap%3Bhtml%3D1%3BfillColor%3D%23a8a3a3%3B%22%20vertex%3D%221%22%20parent%3D%221%22%3E%3CmxGeometry%20x%3D%22120%22%20y%3D%22175%22%20width%3D%22120%22%20height%3D%2230%22%20as%3D%22geometry%22%2F%3E%3C%2FmxCell%3E%3C%2Froot%3E%3C%2FmxGraphModel%3E&lt;/span&gt;&amp;nbsp;고려" style="rounded=0;whiteSpace=wrap;html=1;fillColor=light-dark(#e1dfdf, #635f5f);fontColor=light-dark(#080808, #121212);fontStyle=1" parent="OnXjWkOV2yzolsW06Ajc-8" vertex="1">
          <mxGeometry x="180" y="165" width="120" height="30" as="geometry" />
        </mxCell>
        <mxCell id="OnXjWkOV2yzolsW06Ajc-19" value="결과보고 및 공지" style="rounded=0;whiteSpace=wrap;html=1;fillColor=light-dark(#e1dfdf, #635f5f);fontColor=light-dark(#080808, #121212);fontStyle=1" parent="OnXjWkOV2yzolsW06Ajc-8" vertex="1">
          <mxGeometry x="180" y="230" width="120" height="30" as="geometry" />
        </mxCell>
        <mxCell id="OnXjWkOV2yzolsW06Ajc-20" value="효과 파악" style="rhombus;whiteSpace=wrap;html=1;fillColor=light-dark(#e1dfdf, #635f5f);fontColor=light-dark(#080808, #121212);fontStyle=1" parent="OnXjWkOV2yzolsW06Ajc-8" vertex="1">
          <mxGeometry x="175" y="310" width="130" height="50" as="geometry" />
        </mxCell>
        <mxCell id="OnXjWkOV2yzolsW06Ajc-21" value="변경 관리" style="rounded=0;whiteSpace=wrap;html=1;fillColor=light-dark(#e1dfdf, #635f5f);fontColor=light-dark(#080808, #121212);fontStyle=1" parent="OnXjWkOV2yzolsW06Ajc-8" vertex="1">
          <mxGeometry x="180" y="420" width="120" height="30" as="geometry" />
        </mxCell>
        <mxCell id="OnXjWkOV2yzolsW06Ajc-22" value="" style="edgeStyle=segmentEdgeStyle;endArrow=classic;html=1;curved=0;rounded=0;endSize=8;startSize=8;strokeWidth=2;fontColor=light-dark(#080808, #121212);fontStyle=1" parent="OnXjWkOV2yzolsW06Ajc-8" edge="1">
          <mxGeometry width="50" height="50" relative="1" as="geometry">
            <mxPoint x="80" y="410" as="sourcePoint" />
            <mxPoint x="180" y="440" as="targetPoint" />
            <Array as="points">
              <mxPoint x="80" y="440" />
            </Array>
          </mxGeometry>
        </mxCell>
        <mxCell id="OnXjWkOV2yzolsW06Ajc-23" value="" style="endArrow=classic;html=1;rounded=0;strokeWidth=2;exitX=0.421;exitY=1.025;exitDx=0;exitDy=0;exitPerimeter=0;fontColor=light-dark(#080808, #121212);fontStyle=1" parent="OnXjWkOV2yzolsW06Ajc-8" edge="1">
          <mxGeometry width="50" height="50" relative="1" as="geometry">
            <mxPoint x="79.65999999999998" y="100.00000000000011" as="sourcePoint" />
            <mxPoint x="80" y="130" as="targetPoint" />
          </mxGeometry>
        </mxCell>
        <mxCell id="OnXjWkOV2yzolsW06Ajc-24" value="" style="endArrow=classic;html=1;rounded=0;strokeWidth=2;exitX=0.421;exitY=1.025;exitDx=0;exitDy=0;exitPerimeter=0;fontColor=light-dark(#080808, #121212);fontStyle=1" parent="OnXjWkOV2yzolsW06Ajc-8" edge="1">
          <mxGeometry width="50" height="50" relative="1" as="geometry">
            <mxPoint x="79.65999999999997" y="165.0000000000001" as="sourcePoint" />
            <mxPoint x="80" y="195" as="targetPoint" />
          </mxGeometry>
        </mxCell>
        <mxCell id="OnXjWkOV2yzolsW06Ajc-25" value="" style="endArrow=classic;html=1;rounded=0;strokeWidth=2;exitX=0.421;exitY=1.025;exitDx=0;exitDy=0;exitPerimeter=0;fontColor=light-dark(#080808, #121212);fontStyle=1" parent="OnXjWkOV2yzolsW06Ajc-8" edge="1">
          <mxGeometry width="50" height="50" relative="1" as="geometry">
            <mxPoint x="79.65999999999997" y="232.0000000000001" as="sourcePoint" />
            <mxPoint x="80" y="262" as="targetPoint" />
          </mxGeometry>
        </mxCell>
        <mxCell id="OnXjWkOV2yzolsW06Ajc-26" value="" style="endArrow=classic;html=1;rounded=0;strokeWidth=2;exitX=0.421;exitY=1.025;exitDx=0;exitDy=0;exitPerimeter=0;fontColor=light-dark(#080808, #121212);fontStyle=1" parent="OnXjWkOV2yzolsW06Ajc-8" edge="1">
          <mxGeometry width="50" height="50" relative="1" as="geometry">
            <mxPoint x="79.65999999999997" y="320.0000000000001" as="sourcePoint" />
            <mxPoint x="80" y="350" as="targetPoint" />
          </mxGeometry>
        </mxCell>
        <mxCell id="OnXjWkOV2yzolsW06Ajc-27" value="" style="edgeStyle=elbowEdgeStyle;elbow=horizontal;endArrow=classic;html=1;curved=0;rounded=0;endSize=8;startSize=8;exitX=1;exitY=0.5;exitDx=0;exitDy=0;strokeWidth=2;fontColor=light-dark(#080808, #121212);fontStyle=1" parent="OnXjWkOV2yzolsW06Ajc-8" source="OnXjWkOV2yzolsW06Ajc-15" edge="1">
          <mxGeometry width="50" height="50" relative="1" as="geometry">
            <mxPoint x="150" y="300" as="sourcePoint" />
            <mxPoint x="180" y="180" as="targetPoint" />
            <Array as="points">
              <mxPoint x="160" y="250" />
            </Array>
          </mxGeometry>
        </mxCell>
        <mxCell id="OnXjWkOV2yzolsW06Ajc-28" value="&lt;font style=&quot;font-size: 13px;&quot;&gt;조정&lt;/font&gt;&lt;div style=&quot;font-size: 13px;&quot;&gt;&lt;font style=&quot;font-size: 13px;&quot;&gt;불가능&lt;/font&gt;&lt;/div&gt;" style="text;strokeColor=none;fillColor=none;html=1;fontSize=13;fontStyle=1;verticalAlign=middle;align=center;fontColor=light-dark(#080808, #121212);" parent="OnXjWkOV2yzolsW06Ajc-8" vertex="1">
          <mxGeometry x="80" y="240" width="90" height="30" as="geometry" />
        </mxCell>
        <mxCell id="OnXjWkOV2yzolsW06Ajc-29" value="" style="edgeStyle=elbowEdgeStyle;elbow=horizontal;endArrow=classic;html=1;curved=0;rounded=0;endSize=8;startSize=8;strokeWidth=2;exitX=0;exitY=0.5;exitDx=0;exitDy=0;entryX=1;entryY=0.5;entryDx=0;entryDy=0;fontColor=light-dark(#080808, #121212);fontStyle=1" parent="OnXjWkOV2yzolsW06Ajc-8" source="OnXjWkOV2yzolsW06Ajc-20" target="OnXjWkOV2yzolsW06Ajc-14" edge="1">
          <mxGeometry width="50" height="50" relative="1" as="geometry">
            <mxPoint x="160" y="340" as="sourcePoint" />
            <mxPoint x="160" y="360" as="targetPoint" />
            <Array as="points">
              <mxPoint x="170" y="260" />
            </Array>
          </mxGeometry>
        </mxCell>
        <mxCell id="OnXjWkOV2yzolsW06Ajc-30" value="부적합&lt;span style=&quot;font-family: monospace; font-size: 0px; text-align: start;&quot;&gt;%3CmxGraphModel%3E%3Croot%3E%3CmxCell%20id%3D%220%22%2F%3E%3CmxCell%20id%3D%221%22%20parent%3D%220%22%2F%3E%3CmxCell%20id%3D%222%22%20value%3D%22%26lt%3Bfont%20style%3D%26quot%3Bfont-size%3A%2013px%3B%26quot%3B%26gt%3B%EC%A1%B0%EC%A0%95%26lt%3B%2Ffont%26gt%3B%26lt%3Bdiv%20style%3D%26quot%3Bfont-size%3A%2013px%3B%26quot%3B%26gt%3B%26lt%3Bfont%20style%3D%26quot%3Bfont-size%3A%2013px%3B%26quot%3B%26gt%3B%EB%B6%88%EA%B0%80%EB%8A%A5%26lt%3B%2Ffont%26gt%3B%26lt%3B%2Fdiv%26gt%3B%22%20style%3D%22text%3BstrokeColor%3Dnone%3BfillColor%3Dnone%3Bhtml%3D1%3BfontSize%3D13%3BfontStyle%3D1%3BverticalAlign%3Dmiddle%3Balign%3Dcenter%3B%22%20vertex%3D%221%22%20parent%3D%221%22%3E%3CmxGeometry%20x%3D%22180%22%20y%3D%22280%22%20width%3D%2290%22%20height%3D%2230%22%20as%3D%22geometry%22%2F%3E%3C%2FmxCell%3E%3C%2Froot%3E%3C%2FmxGraphModel%3E&lt;/span&gt;" style="text;strokeColor=none;fillColor=none;html=1;fontSize=13;fontStyle=1;verticalAlign=middle;align=center;fontColor=light-dark(#080808, #121212);" parent="OnXjWkOV2yzolsW06Ajc-8" vertex="1">
          <mxGeometry x="120" y="340" width="90" height="30" as="geometry" />
        </mxCell>
        <mxCell id="OnXjWkOV2yzolsW06Ajc-31" value="적합&lt;span style=&quot;font-family: monospace; font-size: 0px; text-align: start;&quot;&gt;%3CmxGraphModel%3E%3Croot%3E%3CmxCell%20id%3D%220%22%2F%3E%3CmxCell%20id%3D%221%22%20parent%3D%220%22%2F%3E%3CmxCell%20id%3D%222%22%20value%3D%22%26lt%3Bfont%20style%3D%26quot%3Bfont-size%3A%2013px%3B%26quot%3B%26gt%3B%EC%A1%B0%EC%A0%95%26lt%3B%2Ffont%26gt%3B%26lt%3Bdiv%20style%3D%26quot%3Bfont-size%3A%2013px%3B%26quot%3B%26gt%3B%26lt%3Bfont%20style%3D%26quot%3Bfont-size%3A%2013px%3B%26quot%3B%26gt%3B%EB%B6%88%EA%B0%80%EB%8A%A5%26lt%3B%2Ffont%26gt%3B%26lt%3B%2Fdiv%26gt%3B%22%20style%3D%22text%3BstrokeColor%3Dnone%3BfillColor%3Dnone%3Bhtml%3D1%3BfontSize%3D13%3BfontStyle%3D1%3BverticalAlign%3Dmiddle%3Balign%3Dcenter%3B%22%20vertex%3D%221%22%20parent%3D%221%22%3E%3CmxGeometry%20x%3D%22180%22%20y%3D%22280%22%20width%3D%2290%22%20height%3D%2230%22%20as%3D%22geometry%22%2F%3E%3C%2FmxCell%3E%3C%2Froot%3E%3C%2FmxGraphModel%3E&lt;/span&gt;" style="text;strokeColor=none;fillColor=none;html=1;fontSize=13;fontStyle=1;verticalAlign=middle;align=center;fontColor=light-dark(#080808, #121212);" parent="OnXjWkOV2yzolsW06Ajc-8" vertex="1">
          <mxGeometry x="230" y="280" width="90" height="30" as="geometry" />
        </mxCell>
        <mxCell id="OnXjWkOV2yzolsW06Ajc-32" value="" style="endArrow=classic;html=1;rounded=0;strokeWidth=2;exitX=0;exitY=0.5;exitDx=0;exitDy=0;fontColor=light-dark(#080808, #121212);fontStyle=1" parent="OnXjWkOV2yzolsW06Ajc-8" edge="1">
          <mxGeometry width="50" height="50" relative="1" as="geometry">
            <mxPoint x="239.76" y="305" as="sourcePoint" />
            <mxPoint x="239.76" y="270" as="targetPoint" />
          </mxGeometry>
        </mxCell>
        <mxCell id="OnXjWkOV2yzolsW06Ajc-33" value="" style="endArrow=classic;html=1;rounded=0;strokeWidth=2;exitX=0;exitY=0.5;exitDx=0;exitDy=0;fontColor=light-dark(#080808, #121212);fontStyle=1" parent="OnXjWkOV2yzolsW06Ajc-8" edge="1">
          <mxGeometry width="50" height="50" relative="1" as="geometry">
            <mxPoint x="239.76" y="411" as="sourcePoint" />
            <mxPoint x="239.76" y="376" as="targetPoint" />
          </mxGeometry>
        </mxCell>
        <mxCell id="OnXjWkOV2yzolsW06Ajc-34" value="시스템 조정(튜닝)" style="text;strokeColor=none;fillColor=none;html=1;fontSize=13;fontStyle=0;verticalAlign=middle;align=center;fontColor=#FFFFFF;" parent="OnXjWkOV2yzolsW06Ajc-8" vertex="1">
          <mxGeometry x="70" y="440" width="90" height="30" as="geometry" />
        </mxCell>
      </root>
    </mxGraphModel>
  </diagram>
</mxfile>
